<svg width="52" height="52" viewBox="0 0 52 52" fill="none" xmlns="http://www.w3.org/2000/svg">
<circle cx="26" cy="26" r="26" fill="#D8FFF2"/>
<path fill-rule="evenodd" clip-rule="evenodd" d="M13 26C13 18.8314 18.8314 13 26 13C33.1686 13 39 18.8324 39 26C39 33.1676 33.1686 39 26 39C18.8314 39 13 33.1686 13 26ZM15.0139 26C15.0139 32.0579 19.9431 36.9861 26 36.9861C32.0569 36.9861 36.9861 32.0579 36.9861 26C36.9861 19.9421 32.0579 15.0139 26 15.0139C19.9431 15.0139 15.0139 19.9421 15.0139 26ZM30.6908 21.9652C31.0776 21.5921 31.736 21.5657 32.1593 21.9032C32.5846 22.2417 32.6158 22.8182 32.2299 23.1923L25.1465 30.0342C24.9541 30.2202 24.6837 30.3279 24.3966 30.3334C24.3904 30.3325 24.3831 30.3325 24.3769 30.3325H24.3768C24.0981 30.3325 23.8319 30.2348 23.6353 30.0597L19.7988 26.6387C19.3953 26.2793 19.4015 25.7019 19.8113 25.3488C20.22 24.9949 20.8773 25.0003 21.2818 25.3598L24.3467 28.0929L30.6908 21.9652Z" fill="black"/>
</svg>
