<svg width="115" height="13" viewBox="0 0 115 13" fill="none" xmlns="http://www.w3.org/2000/svg">
<path d="M6.352 12.064C5.25333 12.064 4.288 11.824 3.456 11.344C2.624 10.8533 1.97333 10.1813 1.504 9.328C1.04533 8.47467 0.816 7.49867 0.816 6.4C0.816 5.29067 1.04533 4.30933 1.504 3.456C1.97333 2.60267 2.624 1.936 3.456 1.456C4.288 0.975999 5.25333 0.735999 6.352 0.735999C7.45067 0.735999 8.416 0.975999 9.248 1.456C10.08 1.936 10.7253 2.60267 11.184 3.456C11.6533 4.30933 11.888 5.29067 11.888 6.4C11.888 7.49867 11.6533 8.47467 11.184 9.328C10.7253 10.1813 10.08 10.8533 9.248 11.344C8.416 11.824 7.45067 12.064 6.352 12.064ZM6.352 11.472C7.35467 11.472 8.224 11.2587 8.96 10.832C9.696 10.4053 10.2613 9.808 10.656 9.04C11.0613 8.272 11.264 7.392 11.264 6.4C11.264 5.38667 11.0613 4.50133 10.656 3.744C10.2613 2.976 9.696 2.37867 8.96 1.952C8.224 1.52533 7.35467 1.312 6.352 1.312C5.34933 1.312 4.48 1.52533 3.744 1.952C3.008 2.37867 2.43733 2.976 2.032 3.744C1.63733 4.50133 1.44 5.38667 1.44 6.4C1.44 7.392 1.63733 8.272 2.032 9.04C2.43733 9.808 3.008 10.4053 3.744 10.832C4.48 11.2587 5.34933 11.472 6.352 11.472ZM6.352 10.096C5.712 10.096 5.13067 9.952 4.608 9.664C4.08533 9.376 3.664 8.95467 3.344 8.4C3.03467 7.83467 2.88 7.16267 2.88 6.384C2.88 5.60533 3.03467 4.93867 3.344 4.384C3.664 3.82933 4.08533 3.408 4.608 3.12C5.13067 2.82133 5.712 2.672 6.352 2.672C7.14133 2.672 7.83467 2.88533 8.432 3.312C9.02933 3.728 9.42933 4.33067 9.632 5.12H8.4C8.25067 4.64 7.98933 4.27733 7.616 4.032C7.24267 3.776 6.816 3.648 6.336 3.648C5.71733 3.648 5.184 3.87733 4.736 4.336C4.288 4.79467 4.064 5.48267 4.064 6.4C4.064 7.30667 4.288 7.98933 4.736 8.448C5.184 8.90667 5.71733 9.136 6.336 9.136C7.38133 9.136 8.06933 8.65067 8.4 7.68H9.632C9.42933 8.42667 9.02933 9.01867 8.432 9.456C7.83467 9.88267 7.14133 10.096 6.352 10.096ZM17.9455 12V11.056C18.7028 10.4587 19.4175 9.856 20.0895 9.248C20.7722 8.62933 21.3748 8.02133 21.8975 7.424C22.4308 6.82667 22.8468 6.24 23.1455 5.664C23.4548 5.088 23.6095 4.53333 23.6095 4C23.6095 3.60533 23.5402 3.23733 23.4015 2.896C23.2735 2.55467 23.0602 2.28267 22.7615 2.08C22.4628 1.86667 22.0575 1.76 21.5455 1.76C21.0548 1.76 20.6442 1.872 20.3135 2.096C19.9828 2.30933 19.7322 2.59733 19.5615 2.96C19.4015 3.32267 19.3215 3.712 19.3215 4.128H18.0255C18.0255 3.392 18.1802 2.76267 18.4895 2.24C18.7988 1.70667 19.2202 1.30133 19.7535 1.024C20.2868 0.746666 20.8895 0.608 21.5615 0.608C22.5535 0.608 23.3642 0.890666 23.9935 1.456C24.6335 2.01067 24.9535 2.84267 24.9535 3.952C24.9535 4.61333 24.7882 5.26933 24.4575 5.92C24.1268 6.56 23.7055 7.184 23.1935 7.792C22.6815 8.38933 22.1322 8.94933 21.5455 9.472C20.9695 9.99467 20.4308 10.464 19.9295 10.88H25.3375V12H17.9455ZM31.4895 12.192C30.4975 12.192 29.6388 11.952 28.9135 11.472C28.1988 10.9813 27.6495 10.304 27.2655 9.44C26.8815 8.56533 26.6895 7.552 26.6895 6.4C26.6895 5.248 26.8815 4.24 27.2655 3.376C27.6495 2.50133 28.1988 1.824 28.9135 1.344C29.6388 0.853333 30.4975 0.608 31.4895 0.608C32.4815 0.608 33.3348 0.853333 34.0495 1.344C34.7642 1.824 35.3135 2.50133 35.6975 3.376C36.0815 4.24 36.2735 5.248 36.2735 6.4C36.2735 7.552 36.0815 8.56533 35.6975 9.44C35.3135 10.304 34.7642 10.9813 34.0495 11.472C33.3348 11.952 32.4815 12.192 31.4895 12.192ZM31.4895 11.008C32.1402 11.008 32.7215 10.8267 33.2335 10.464C33.7562 10.0907 34.1615 9.56267 34.4495 8.88C34.7482 8.18667 34.8975 7.36 34.8975 6.4C34.8975 5.44 34.7482 4.61867 34.4495 3.936C34.1615 3.25333 33.7562 2.73067 33.2335 2.368C32.7215 1.99467 32.1402 1.808 31.4895 1.808C30.8282 1.808 30.2415 1.99467 29.7295 2.368C29.2175 2.73067 28.8122 3.25333 28.5135 3.936C28.2148 4.61867 28.0655 5.44 28.0655 6.4C28.0655 7.36 28.2148 8.18667 28.5135 8.88C28.8122 9.56267 29.2175 10.0907 29.7295 10.464C30.2415 10.8267 30.8282 11.008 31.4895 11.008ZM39.3193 12V2.304L37.5113 2.704V1.776L39.7673 0.799999H40.6793V12H39.3193ZM47.4114 12.192C46.4194 12.192 45.5607 11.952 44.8354 11.472C44.1207 10.9813 43.5714 10.304 43.1874 9.44C42.8034 8.56533 42.6114 7.552 42.6114 6.4C42.6114 5.248 42.8034 4.24 43.1874 3.376C43.5714 2.50133 44.1207 1.824 44.8354 1.344C45.5607 0.853333 46.4194 0.608 47.4114 0.608C48.4034 0.608 49.2567 0.853333 49.9714 1.344C50.686 1.824 51.2354 2.50133 51.6194 3.376C52.0034 4.24 52.1954 5.248 52.1954 6.4C52.1954 7.552 52.0034 8.56533 51.6194 9.44C51.2354 10.304 50.686 10.9813 49.9714 11.472C49.2567 11.952 48.4034 12.192 47.4114 12.192ZM47.4114 11.008C48.062 11.008 48.6434 10.8267 49.1554 10.464C49.678 10.0907 50.0834 9.56267 50.3714 8.88C50.67 8.18667 50.8194 7.36 50.8194 6.4C50.8194 5.44 50.67 4.61867 50.3714 3.936C50.0834 3.25333 49.678 2.73067 49.1554 2.368C48.6434 1.99467 48.062 1.808 47.4114 1.808C46.75 1.808 46.1634 1.99467 45.6514 2.368C45.1394 2.73067 44.734 3.25333 44.4354 3.936C44.1367 4.61867 43.9874 5.44 43.9874 6.4C43.9874 7.36 44.1367 8.18667 44.4354 8.88C44.734 9.56267 45.1394 10.0907 45.6514 10.464C46.1634 10.8267 46.75 11.008 47.4114 11.008ZM58.1315 7.92V6.784H69.7795V7.92H58.1315ZM75.9611 12V11.056C76.7185 10.4587 77.4331 9.856 78.1051 9.248C78.7878 8.62933 79.3905 8.02133 79.9131 7.424C80.4465 6.82667 80.8625 6.24 81.1611 5.664C81.4705 5.088 81.6251 4.53333 81.6251 4C81.6251 3.60533 81.5558 3.23733 81.4171 2.896C81.2891 2.55467 81.0758 2.28267 80.7771 2.08C80.4785 1.86667 80.0731 1.76 79.5611 1.76C79.0705 1.76 78.6598 1.872 78.3291 2.096C77.9985 2.30933 77.7478 2.59733 77.5771 2.96C77.4171 3.32267 77.3371 3.712 77.3371 4.128H76.0411C76.0411 3.392 76.1958 2.76267 76.5051 2.24C76.8145 1.70667 77.2358 1.30133 77.7691 1.024C78.3025 0.746666 78.9051 0.608 79.5771 0.608C80.5691 0.608 81.3798 0.890666 82.0091 1.456C82.6491 2.01067 82.9691 2.84267 82.9691 3.952C82.9691 4.61333 82.8038 5.26933 82.4731 5.92C82.1425 6.56 81.7211 7.184 81.2091 7.792C80.6971 8.38933 80.1478 8.94933 79.5611 9.472C78.9851 9.99467 78.4465 10.464 77.9451 10.88H83.3531V12H75.9611ZM89.5051 12.192C88.5131 12.192 87.6545 11.952 86.9291 11.472C86.2145 10.9813 85.6651 10.304 85.2811 9.44C84.8971 8.56533 84.7051 7.552 84.7051 6.4C84.7051 5.248 84.8971 4.24 85.2811 3.376C85.6651 2.50133 86.2145 1.824 86.9291 1.344C87.6545 0.853333 88.5131 0.608 89.5051 0.608C90.4971 0.608 91.3505 0.853333 92.0651 1.344C92.7798 1.824 93.3291 2.50133 93.7131 3.376C94.0971 4.24 94.2891 5.248 94.2891 6.4C94.2891 7.552 94.0971 8.56533 93.7131 9.44C93.3291 10.304 92.7798 10.9813 92.0651 11.472C91.3505 11.952 90.4971 12.192 89.5051 12.192ZM89.5051 11.008C90.1558 11.008 90.7371 10.8267 91.2491 10.464C91.7718 10.0907 92.1771 9.56267 92.4651 8.88C92.7638 8.18667 92.9131 7.36 92.9131 6.4C92.9131 5.44 92.7638 4.61867 92.4651 3.936C92.1771 3.25333 91.7718 2.73067 91.2491 2.368C90.7371 1.99467 90.1558 1.808 89.5051 1.808C88.8438 1.808 88.2571 1.99467 87.7451 2.368C87.2331 2.73067 86.8278 3.25333 86.5291 3.936C86.2305 4.61867 86.0811 5.44 86.0811 6.4C86.0811 7.36 86.2305 8.18667 86.5291 8.88C86.8278 9.56267 87.2331 10.0907 87.7451 10.464C88.2571 10.8267 88.8438 11.008 89.5051 11.008ZM95.8986 12V11.056C96.656 10.4587 97.3706 9.856 98.0426 9.248C98.7253 8.62933 99.328 8.02133 99.8506 7.424C100.384 6.82667 100.8 6.24 101.099 5.664C101.408 5.088 101.563 4.53333 101.563 4C101.563 3.60533 101.493 3.23733 101.355 2.896C101.227 2.55467 101.013 2.28267 100.715 2.08C100.416 1.86667 100.011 1.76 99.4986 1.76C99.008 1.76 98.5973 1.872 98.2666 2.096C97.936 2.30933 97.6853 2.59733 97.5146 2.96C97.3546 3.32267 97.2746 3.712 97.2746 4.128H95.9786C95.9786 3.392 96.1333 2.76267 96.4426 2.24C96.752 1.70667 97.1733 1.30133 97.7066 1.024C98.24 0.746666 98.8426 0.608 99.5146 0.608C100.507 0.608 101.317 0.890666 101.947 1.456C102.587 2.01067 102.907 2.84267 102.907 3.952C102.907 4.61333 102.741 5.26933 102.411 5.92C102.08 6.56 101.659 7.184 101.147 7.792C100.635 8.38933 100.085 8.94933 99.4986 9.472C98.9226 9.99467 98.384 10.464 97.8826 10.88H103.291V12H95.8986ZM109.443 12.192C108.451 12.192 107.592 11.952 106.867 11.472C106.152 10.9813 105.603 10.304 105.219 9.44C104.835 8.56533 104.643 7.552 104.643 6.4C104.643 5.248 104.835 4.24 105.219 3.376C105.603 2.50133 106.152 1.824 106.867 1.344C107.592 0.853333 108.451 0.608 109.443 0.608C110.435 0.608 111.288 0.853333 112.003 1.344C112.717 1.824 113.267 2.50133 113.651 3.376C114.035 4.24 114.227 5.248 114.227 6.4C114.227 7.552 114.035 8.56533 113.651 9.44C113.267 10.304 112.717 10.9813 112.003 11.472C111.288 11.952 110.435 12.192 109.443 12.192ZM109.443 11.008C110.093 11.008 110.675 10.8267 111.187 10.464C111.709 10.0907 112.115 9.56267 112.403 8.88C112.701 8.18667 112.851 7.36 112.851 6.4C112.851 5.44 112.701 4.61867 112.403 3.936C112.115 3.25333 111.709 2.73067 111.187 2.368C110.675 1.99467 110.093 1.808 109.443 1.808C108.781 1.808 108.195 1.99467 107.683 2.368C107.171 2.73067 106.765 3.25333 106.467 3.936C106.168 4.61867 106.019 5.44 106.019 6.4C106.019 7.36 106.168 8.18667 106.467 8.88C106.765 9.56267 107.171 10.0907 107.683 10.464C108.195 10.8267 108.781 11.008 109.443 11.008Z" fill="black"/>
</svg>
