<svg width="52" height="52" viewBox="0 0 52 52" fill="none" xmlns="http://www.w3.org/2000/svg">
<circle cx="26" cy="26" r="26" fill="#D8FFF2"/>
<path d="M37.1429 34V32C37.1388 28.9926 36.0872 26.0963 34.1959 23.8836C32.3046 21.6709 29.7113 20.3029 26.9286 20.05V18H28.7143C29.2666 18 29.7143 17.5523 29.7143 17C29.7143 16.4477 29.2666 16 28.7143 16H23.2857C22.7334 16 22.2857 16.4477 22.2857 17C22.2857 17.5523 22.7334 18 23.2857 18H25.0714V20.05C22.2887 20.3029 19.6954 21.6709 17.8041 23.8836C15.9128 26.0963 14.8612 28.9926 14.8571 32V34H14C13.4477 34 13 34.4477 13 35C13 35.5523 13.4477 36 14 36H38C38.5523 36 39 35.5523 39 35C39 34.4477 38.5523 34 38 34H37.1429ZM26 22C28.1395 22.0032 30.2126 22.8006 31.8699 24.2578C33.5272 25.7151 34.6673 27.7431 35.0981 30H16.9019C17.3327 27.7431 18.4728 25.7151 20.1301 24.2578C21.7874 22.8006 23.8605 22.0032 26 22ZM16.7143 32H35.2857V34H16.7143V32Z" fill="black"/>
</svg>
