<svg width="52" height="52" viewBox="0 0 52 52" fill="none" xmlns="http://www.w3.org/2000/svg">
<circle cx="26" cy="26" r="26" fill="#D8FFF2"/>
<path fill-rule="evenodd" clip-rule="evenodd" d="M26 13C18.8419 13 13 18.8423 13 26C13 33.1581 18.8423 39 26 39C33.1581 39 39 33.1577 39 26C39 18.8419 33.1577 13 26 13ZM26 37.4766C19.6718 37.4766 14.5234 32.3282 14.5234 26C14.5234 19.6718 19.6718 14.5234 26 14.5234C32.3282 14.5234 37.4766 19.6718 37.4766 26C37.4766 32.3282 32.3282 37.4766 26 37.4766ZM32.0938 26.7617C32.5145 26.7617 32.8555 26.4207 32.8555 26C32.8555 25.5793 32.5145 25.2383 32.0938 25.2383H28.1542C27.8397 24.3517 26.9931 23.7148 26 23.7148C25.6477 23.7148 25.3138 23.7951 25.0154 23.9381L20.4449 19.3676C20.1475 19.0701 19.6652 19.0701 19.3677 19.3676C19.0702 19.6651 19.0702 20.1474 19.3677 20.4448L23.9382 25.0154C23.7952 25.3137 23.7149 25.6476 23.7149 26C23.7149 26.3524 23.7952 26.6863 23.9382 26.9847L20.8911 30.0317C20.5937 30.3292 20.5937 30.8115 20.8911 31.109C21.1886 31.4064 21.6709 31.4064 21.9684 31.109L25.0154 28.0619C25.3138 28.2049 25.6477 28.2852 26 28.2852C26.9931 28.2852 27.8397 27.6483 28.1542 26.7617H32.0938ZM26 26.7617C25.58 26.7617 25.2383 26.42 25.2383 26C25.2383 25.58 25.58 25.2383 26 25.2383C26.42 25.2383 26.7618 25.58 26.7618 26C26.7618 26.42 26.42 26.7617 26 26.7617ZM33.225 32.4634C33.225 32.8841 32.884 33.2251 32.4633 33.2251C32.0426 33.2251 31.7016 32.8841 31.7016 32.4634C31.7016 32.0427 32.0426 31.7017 32.4633 31.7017C32.884 31.7017 33.225 32.0427 33.225 32.4634ZM19.5367 33.2251C19.9573 33.2251 20.2984 32.8841 20.2984 32.4634C20.2984 32.0427 19.9573 31.7017 19.5367 31.7017C19.116 31.7017 18.7749 32.0427 18.7749 32.4634C18.7749 32.8841 19.116 33.2251 19.5367 33.2251ZM33.225 19.5366C33.225 19.9573 32.884 20.2983 32.4633 20.2983C32.0426 20.2983 31.7016 19.9573 31.7016 19.5366C31.7016 19.1159 32.0426 18.7749 32.4633 18.7749C32.884 18.7749 33.225 19.1159 33.225 19.5366ZM26 17.6211C26.4207 17.6211 26.7617 17.2801 26.7617 16.8594C26.7617 16.4387 26.4207 16.0977 26 16.0977C25.5793 16.0977 25.2383 16.4387 25.2383 16.8594C25.2383 17.2801 25.5793 17.6211 26 17.6211ZM26.7617 35.1406C26.7617 35.5613 26.4207 35.9023 26 35.9023C25.5793 35.9023 25.2383 35.5613 25.2383 35.1406C25.2383 34.7199 25.5793 34.3789 26 34.3789C26.4207 34.3789 26.7617 34.7199 26.7617 35.1406ZM16.8594 26.7617C17.2801 26.7617 17.6211 26.4207 17.6211 26C17.6211 25.5793 17.2801 25.2383 16.8594 25.2383C16.4387 25.2383 16.0977 25.5793 16.0977 26C16.0977 26.4207 16.4387 26.7617 16.8594 26.7617ZM35.9023 26C35.9023 26.4207 35.5613 26.7617 35.1406 26.7617C34.7199 26.7617 34.3789 26.4207 34.3789 26C34.3789 25.5793 34.7199 25.2383 35.1406 25.2383C35.5613 25.2383 35.9023 25.5793 35.9023 26Z" fill="black"/>
</svg>
