<svg width="52" height="52" viewBox="0 0 52 52" fill="none" xmlns="http://www.w3.org/2000/svg">
<circle cx="26" cy="26" r="26" fill="#D8FFF2"/>
<path fill-rule="evenodd" clip-rule="evenodd" d="M36.4003 23.6428H37.2001C37.4123 23.6428 37.6157 23.7256 37.7657 23.873C37.9157 24.0203 38 24.2201 38 24.4285V30.7142C38 30.9226 37.9157 31.1225 37.7657 31.2698C37.6157 31.4172 37.4123 31.4999 37.2001 31.4999H36.4003V36.2142C36.4003 36.4226 36.316 36.6224 36.166 36.7698C36.016 36.9171 35.8126 36.9999 35.6004 36.9999H17.3076C16.877 37.003 16.4499 36.9228 16.0508 36.7637C15.6517 36.6047 15.2884 36.37 14.9817 36.0731C14.6749 35.7761 14.4307 35.4227 14.263 35.0331C14.0953 34.6434 14.0074 34.2251 14.0042 33.8021V17.64C13.9986 17.5458 13.9986 17.4513 14.0042 17.3571C14.0042 16.732 14.257 16.1324 14.707 15.6904C15.157 15.2483 15.7674 15 16.4038 15H35.2645C35.4766 15 35.6801 15.0828 35.8301 15.2301C35.9801 15.3775 36.0643 15.5773 36.0643 15.7857C36.0643 15.9941 35.9801 16.1939 35.8301 16.3413C35.6801 16.4886 35.4766 16.5714 35.2645 16.5714H16.4038C16.2144 16.5684 16.03 16.6315 15.8836 16.7495C15.7371 16.8674 15.638 17.0327 15.6039 17.2157V17.4986C15.638 17.6816 15.7371 17.8468 15.8836 17.9648C16.03 18.0828 16.2144 18.1459 16.4038 18.1428H35.6004C35.8126 18.1428 36.016 18.2256 36.166 18.373C36.316 18.5203 36.4003 18.7202 36.4003 18.9286V23.6428ZM17.3076 35.4285H34.8006V31.4999H29.2015C28.1409 31.4999 27.1236 31.086 26.3736 30.3493C25.6236 29.6125 25.2022 28.6133 25.2022 27.5714C25.2022 26.5295 25.6236 25.5302 26.3736 24.7935C27.1236 24.0567 28.1409 23.6428 29.2015 23.6428H34.8006V19.7143H16.4038C16.1337 19.7257 15.8636 19.6939 15.6039 19.62V33.8021C15.6123 34.239 15.7961 34.655 16.1151 34.9596C16.4342 35.2642 16.8628 35.4327 17.3076 35.4285ZM29.2015 29.9285H36.4003V25.2142H29.2015C28.5651 25.2142 27.9548 25.4626 27.5048 25.9046C27.0548 26.3467 26.802 26.9462 26.802 27.5714C26.802 28.1965 27.0548 28.7961 27.5048 29.2381C27.9548 29.6802 28.5651 29.9285 29.2015 29.9285ZM31.2091 27.5713C31.2091 28.2222 30.672 28.7499 30.0094 28.7499C29.3467 28.7499 28.8096 28.2222 28.8096 27.5713C28.8096 26.9204 29.3467 26.3927 30.0094 26.3927C30.672 26.3927 31.2091 26.9204 31.2091 27.5713Z" fill="black"/>
</svg>
