<svg width="52" height="52" viewBox="0 0 52 52" fill="none" xmlns="http://www.w3.org/2000/svg">
<circle cx="26" cy="26" r="26" fill="#D8FFF2"/>
<path fill-rule="evenodd" clip-rule="evenodd" d="M25.9998 16C30.8696 16 35.3895 17.8452 38.7274 21.1954C39.1098 21.5793 39.0871 22.1805 38.6768 22.5383C38.4811 22.7089 38.2325 22.7933 37.9846 22.7933C37.7126 22.7933 37.4414 22.6918 37.2414 22.491C34.292 19.5306 30.2998 17.9003 26.0002 17.9002C21.7002 17.9003 17.708 19.5306 14.7586 22.491C14.3762 22.8749 13.7335 22.896 13.3232 22.5383C12.9128 22.1805 12.8902 21.5793 13.2726 21.1954C16.6105 17.8452 21.1304 16 25.9998 16ZM27.625 34.4323C27.625 35.2981 26.8747 36 25.9492 36C25.0237 36 24.2734 35.2981 24.2734 34.4323C24.2734 33.5665 25.0237 32.8646 25.9492 32.8646C26.8747 32.8646 27.625 33.5665 27.625 34.4323ZM34.9982 25.1193C32.5309 22.7937 29.3353 21.513 26 21.5131C22.6639 21.5131 19.4683 22.7939 17.0017 25.1194C16.6066 25.4919 16.6091 26.0934 17.0073 26.463C17.4055 26.8326 18.0485 26.8303 18.4436 26.4578C20.5259 24.4946 23.2095 23.4134 26 23.4133C28.7898 23.4132 31.4734 24.4945 33.5564 26.4579C33.755 26.645 34.0161 26.7387 34.2773 26.7387C34.5359 26.7387 34.7947 26.6468 34.9928 26.4629C35.3909 26.0933 35.3933 25.4917 34.9982 25.1193ZM25.9905 27.0687C27.7182 27.0687 29.6122 27.8294 30.9335 29.0541C31.332 29.4234 31.335 30.025 30.9401 30.3977C30.5454 30.7706 29.9023 30.7733 29.5038 30.404C28.5633 29.5322 27.1842 28.9689 25.9904 28.9689H25.9899H25.9164H25.9159C24.7219 28.9689 23.3429 29.5322 22.4023 30.404C22.2043 30.5875 21.9458 30.6792 21.6875 30.6792C21.426 30.6792 21.1646 30.5852 20.966 30.3977C20.5712 30.025 20.5742 29.4234 20.9727 29.0541C22.2939 27.8295 24.1881 27.0687 25.9158 27.0687H25.9166H25.9897H25.9905Z" fill="black"/>
</svg>
